<svg width="65" height="85" viewBox="0 0 65 85" fill="none" xmlns="http://www.w3.org/2000/svg">
<path d="M1.04224 29.5831H63.8728V15.146H1.04224V29.5831Z" fill="#F79621"/>
<path d="M1.04224 15.1531H63.9576V0.715999H1.04224V15.1531Z" fill="#224EA2"/>
<path d="M26.9702 9.79736C27.7392 9.79736 28.1238 9.32848 28.1238 8.39072C28.1238 7.94546 28.0159 7.59464 27.8 7.33828C27.5875 7.07854 27.2957 6.94867 26.9246 6.94867C26.5569 6.94867 26.2753 7.09035 26.0796 7.3737C25.8873 7.65705 25.7912 8.00112 25.7912 8.4059C25.7912 8.81069 25.8873 9.14464 26.0796 9.40775C26.2719 9.66749 26.5687 9.79736 26.9702 9.79736ZM25.4573 6.807C25.8249 6.3786 26.3225 6.1644 26.9499 6.1644C27.5807 6.1644 28.0783 6.39209 28.4426 6.84747C28.8102 7.30286 28.9941 7.84426 28.9941 8.47168C28.9941 9.09573 28.8102 9.60171 28.4426 9.98963C28.0783 10.3742 27.5773 10.5665 26.9398 10.5665C26.3056 10.5665 25.8081 10.359 25.4471 9.94409C25.0896 9.52919 24.9108 9.00971 24.9108 8.38566C24.9108 7.75824 25.093 7.23202 25.4573 6.807ZM30.6308 5.01076V8.87647C30.6308 9.42293 30.8923 9.69616 31.4151 9.69616H31.5517V10.5665H31.1874C30.7253 10.5462 30.3677 10.3894 30.1147 10.0959C29.8651 9.80242 29.7403 9.40944 29.7403 8.91695V4.31756H30.0186C30.248 4.31756 30.4065 4.36984 30.4942 4.47441C30.5853 4.57561 30.6308 4.75439 30.6308 5.01076ZM33.7349 12.049C33.6338 12.1468 33.514 12.1957 33.3757 12.1957C33.2374 12.1957 33.1176 12.1468 33.0165 12.049C32.9186 11.9512 32.8697 11.8331 32.8697 11.6948C32.8697 11.5565 32.9186 11.4384 33.0165 11.3406C33.1176 11.2462 33.2374 11.1989 33.3757 11.1989C33.514 11.1989 33.6338 11.2462 33.7349 11.3406C33.8361 11.4384 33.8867 11.5565 33.8867 11.6948C33.8867 11.8331 33.8361 11.9512 33.7349 12.049ZM32.5459 12.049C32.4514 12.1468 32.3351 12.1957 32.1968 12.1957C32.0585 12.1957 31.9387 12.1468 31.8375 12.049C31.7397 11.9512 31.6908 11.8331 31.6908 11.6948C31.6908 11.5565 31.7397 11.4384 31.8375 11.3406C31.9387 11.2462 32.0585 11.1989 32.1968 11.1989C32.3351 11.1989 32.4514 11.2462 32.5459 11.3406C32.6437 11.4384 32.6926 11.5565 32.6926 11.6948C32.6926 11.8331 32.6437 11.9512 32.5459 12.049ZM33.3656 7.72789V8.9726C33.3858 9.45498 33.6489 9.69616 34.1549 9.69616H34.3927V10.5665H33.9272C33.4988 10.5462 33.1632 10.4147 32.9203 10.1718C32.6639 10.4147 32.33 10.5462 31.9185 10.5665H31.453V9.69616H31.6908C32.1866 9.69616 32.4481 9.43642 32.475 8.91695V7.03469H32.7584C32.9878 7.03469 33.1463 7.08697 33.234 7.19154C33.3217 7.29274 33.3656 7.47152 33.3656 7.72789ZM36.6569 9.36727C36.866 9.62026 37.141 9.74676 37.4817 9.74676C37.8257 9.74676 38.0838 9.6287 38.2558 9.39257C38.4278 9.15307 38.5139 8.82081 38.5139 8.39578C38.5139 7.97076 38.4143 7.6385 38.2153 7.399C38.0197 7.15612 37.7532 7.03469 37.4159 7.03469C37.0786 7.03469 36.8154 7.15106 36.6265 7.38382C36.441 7.6132 36.3483 7.93703 36.3483 8.35531C36.3483 8.77358 36.4511 9.11091 36.6569 9.36727ZM36.0194 6.80194C36.3769 6.39715 36.8458 6.19476 37.426 6.19476C38.0062 6.19476 38.4717 6.38872 38.8225 6.77664C39.1767 7.16118 39.3538 7.68909 39.3538 8.36036C39.3538 9.02826 39.1818 9.56629 38.8377 9.97445C38.497 10.3826 38.0332 10.5867 37.4462 10.5867C36.8593 10.5867 36.3752 10.3691 35.9941 9.93397C35.677 10.3624 35.1558 10.5766 34.4306 10.5766C34.4036 10.5766 34.3766 10.5732 34.3496 10.5665H34.0814V9.69616H34.4205C34.8556 9.69616 35.1423 9.60846 35.2806 9.43305C35.4189 9.25764 35.4881 8.93381 35.4881 8.46156C35.4881 7.75656 35.6652 7.20335 36.0194 6.80194Z" fill="white"/>
<path d="M15.0934 24.1709C15.2992 24.4239 15.5724 24.5504 15.9131 24.5504C16.2572 24.5504 16.5152 24.4323 16.6873 24.1962C16.8627 23.9567 16.9504 23.6244 16.9504 23.1994C16.9504 22.7744 16.8509 22.4421 16.6518 22.2026C16.4562 21.9598 16.188 21.8383 15.8473 21.8383C15.51 21.8383 15.2486 21.9547 15.063 22.1875C14.8775 22.4168 14.7848 22.7407 14.7848 23.1589C14.7848 23.5772 14.8876 23.9145 15.0934 24.1709ZM17.259 21.5651C17.6132 21.953 17.7903 22.4809 17.7903 23.1488C17.7903 23.8133 17.6183 24.3497 17.2742 24.7578C16.9335 25.166 16.4933 25.3701 15.9536 25.3701C15.4172 25.3701 14.9753 25.2183 14.6279 24.9147C14.5031 25.3498 14.3024 25.7091 14.0258 25.9924C13.7492 26.2758 13.3899 26.4242 12.948 26.4377C12.7827 26.4377 12.6495 26.4293 12.5483 26.4124C12.4505 26.3955 12.356 26.3433 12.265 26.2556C12.1739 26.1712 12.1283 26.0481 12.1283 25.8862V25.5775L12.7608 25.5674C13.2668 25.5539 13.5923 25.4123 13.7374 25.1424C13.8824 24.8692 13.9549 24.5065 13.9549 24.0545L13.9246 23.2146C13.9246 22.6007 14.0916 22.0812 14.4255 21.6562C14.7628 21.2311 15.2519 21.0051 15.8929 20.9782C16.4528 20.9782 16.9082 21.1738 17.259 21.5651ZM19.5333 19.8144V23.6801C19.5333 24.2266 19.7947 24.4998 20.3176 24.4998H20.4542V25.3701H20.0899C19.6278 25.3498 19.2702 25.193 19.0172 24.8995C18.7676 24.6061 18.6428 24.2131 18.6428 23.7206V19.1212H18.9211C19.1504 19.1212 19.309 19.1735 19.3967 19.278C19.4878 19.3792 19.5333 19.558 19.5333 19.8144ZM20.406 25.3701V24.4998H21.5647V21.307H21.843C22.0724 21.307 22.2309 21.3593 22.3186 21.4639C22.4097 21.5685 22.4553 21.7472 22.4553 22.0002V24.4998H23.3913C23.8872 24.4998 24.1486 24.2401 24.1756 23.7206V21.307H24.459C24.6883 21.307 24.8469 21.3593 24.9346 21.4639C25.0223 21.5685 25.0661 21.7472 25.0661 22.0002C25.0661 23.2079 25.0695 23.8201 25.0763 23.837C25.0628 23.9955 25.0425 24.1372 25.0155 24.262C25.3191 24.4408 25.6244 24.5302 25.9314 24.5302C26.2383 24.5302 26.4525 24.461 26.574 24.3227C26.6954 24.1844 26.7629 23.9837 26.7764 23.7206V21.307H27.0597C27.2891 21.307 27.4476 21.3593 27.5353 21.4639C27.623 21.5685 27.6669 21.7472 27.6669 22.0002V23.3715C27.6669 24.0124 27.5235 24.5065 27.2368 24.854C26.9501 25.1981 26.5723 25.3701 26.1034 25.3701C25.4321 25.3701 24.9312 25.2385 24.6006 24.9754C24.3443 25.2318 24.0171 25.3633 23.619 25.3701H20.406ZM33.0706 20.118C32.9728 20.2124 32.8547 20.2597 32.7164 20.2597C32.5781 20.2597 32.4583 20.2124 32.3571 20.118C32.2593 20.0202 32.2104 19.9021 32.2104 19.7638C32.2104 19.6255 32.2593 19.5091 32.3571 19.4147C32.4583 19.3168 32.5781 19.2679 32.7164 19.2679C32.8547 19.2679 32.9728 19.3168 33.0706 19.4147C33.1684 19.5091 33.2173 19.6255 33.2173 19.7638C33.2173 19.9021 33.1684 20.0202 33.0706 20.118ZM34.3608 20.118C34.2596 20.2124 34.1399 20.2597 34.0016 20.2597C33.8633 20.2597 33.7435 20.2124 33.6423 20.118C33.5445 20.0202 33.4956 19.9021 33.4956 19.7638C33.4956 19.6255 33.5445 19.5091 33.6423 19.4147C33.7435 19.3168 33.8633 19.2679 34.0016 19.2679C34.1399 19.2679 34.2596 19.3168 34.3608 19.4147C34.462 19.5091 34.5126 19.6255 34.5126 19.7638C34.5126 19.9021 34.462 20.0202 34.3608 20.118ZM34.4064 24.4998V23.7307C34.4064 23.3327 34.3912 23.0611 34.3608 22.9161C34.3305 22.771 34.2984 22.6293 34.2647 22.491C34.231 22.3527 34.1837 22.2499 34.123 22.1824C34.0623 22.1082 33.9915 22.034 33.9105 21.9598C33.7655 21.8248 33.5344 21.7591 33.2173 21.7624C32.9002 21.7624 32.6456 21.8839 32.4533 22.1267C32.2644 22.3696 32.1699 22.653 32.1699 22.9768C32.1699 23.3006 32.2087 23.5519 32.2863 23.7307C32.3673 23.9061 32.4685 24.0444 32.5899 24.1456C32.7113 24.2434 32.9002 24.3278 33.1566 24.3986C33.413 24.4661 33.8296 24.4998 34.4064 24.4998ZM36.5214 24.4998V25.3701H34.4924C32.3909 25.3701 31.3401 24.6583 31.3401 23.2348C31.3401 22.5298 31.5172 21.9766 31.8714 21.5752C32.229 21.1704 32.6995 20.968 33.2831 20.968C33.8667 20.968 34.3339 21.1637 34.6847 21.555C35.0389 21.9429 35.216 22.4506 35.216 23.078V24.4998H36.5214ZM38.2846 22.5315V23.7762C38.3049 24.2586 38.568 24.4998 39.074 24.4998H39.3118V25.3701H38.8463C38.4179 25.3498 38.0822 25.2183 37.8394 24.9754C37.583 25.2183 37.2491 25.3498 36.8375 25.3701H36.372V24.4998H36.6098C37.1057 24.4998 37.3671 24.2401 37.3941 23.7206V21.8383H37.6775C37.9068 21.8383 38.0654 21.8906 38.1531 21.9952C38.2408 22.0964 38.2846 22.2752 38.2846 22.5315ZM38.1784 21.135C38.0772 21.2295 37.9574 21.2767 37.8191 21.2767C37.6808 21.2767 37.5611 21.2295 37.4599 21.135C37.3621 21.0372 37.3132 20.9191 37.3132 20.7808C37.3132 20.6425 37.3621 20.5245 37.4599 20.4266C37.5611 20.3288 37.6808 20.2799 37.8191 20.2799C37.9574 20.2799 38.0772 20.3288 38.1784 20.4266C38.2796 20.5245 38.3302 20.6425 38.3302 20.7808C38.3302 20.9191 38.2796 21.0372 38.1784 21.135ZM41.4393 26.8526C41.3381 26.9504 41.2184 26.9994 41.0801 26.9994C40.9418 26.9994 40.822 26.9504 40.7208 26.8526C40.623 26.7548 40.5741 26.6367 40.5741 26.4984C40.5741 26.3601 40.623 26.2421 40.7208 26.1442C40.822 26.0498 40.9418 26.0026 41.0801 26.0026C41.2184 26.0026 41.3381 26.0498 41.4393 26.1442C41.5405 26.2421 41.5911 26.3601 41.5911 26.4984C41.5911 26.6367 41.5405 26.7548 41.4393 26.8526ZM40.2503 26.8526C40.1558 26.9504 40.0395 26.9994 39.9012 26.9994C39.7629 26.9994 39.6431 26.9504 39.5419 26.8526C39.4407 26.7548 39.3901 26.6367 39.3901 26.4984C39.3901 26.3601 39.4407 26.2421 39.5419 26.1442C39.6431 26.0498 39.7629 26.0026 39.9012 26.0026C40.0395 26.0026 40.1558 26.0498 40.2503 26.1442C40.3481 26.2421 40.397 26.3601 40.397 26.4984C40.397 26.6367 40.3481 26.7548 40.2503 26.8526ZM41.4849 23.3715C41.4849 24.6432 41.0008 25.3094 40.0327 25.3701H39.1523V24.4998H39.805C40.3009 24.4998 40.564 24.2401 40.5944 23.7206V21.8383H40.8726C41.102 21.8383 41.2606 21.8906 41.3483 21.9952C41.4393 22.0964 41.4849 22.2752 41.4849 22.5315V23.3715ZM47.2758 24.4998H47.5136V25.3701H47.3567C46.8878 25.3701 46.5573 25.2739 46.365 25.0817C46.166 25.2739 45.7275 25.3701 45.0494 25.3701H43.0457C42.9277 25.3701 42.8265 25.3245 42.7422 25.2335C42.6612 25.139 42.6207 25.0328 42.6207 24.9147V24.4998H45.6819C45.6347 23.7813 45.4205 23.1809 45.0393 22.6985C44.6581 22.2128 44.1808 21.9699 43.6074 21.9699C43.378 21.9699 43.2228 21.9986 43.1419 22.0559L43.0812 22.0761L43.2228 21.8029C43.4151 21.4352 43.7676 21.2531 44.2803 21.2564C44.6379 21.2564 44.9837 21.3745 45.3176 21.6106C45.6414 21.8029 45.9079 22.1301 46.1171 22.5922C46.3296 23.0544 46.4662 23.5317 46.5269 24.0242C46.6045 24.3413 46.8541 24.4998 47.2758 24.4998ZM49.7777 24.1709C49.9869 24.4239 50.2618 24.5504 50.6025 24.5504C50.9466 24.5504 51.2046 24.4323 51.3767 24.1962C51.5487 23.9567 51.6347 23.6244 51.6347 23.1994C51.6347 22.7744 51.5352 22.4421 51.3362 22.2026C51.1405 21.9598 50.874 21.8383 50.5367 21.8383C50.1994 21.8383 49.9363 21.9547 49.7474 22.1875C49.5619 22.4168 49.4691 22.7407 49.4691 23.1589C49.4691 23.5772 49.572 23.9145 49.7777 24.1709ZM49.1402 21.6056C49.4978 21.2008 49.9666 20.9984 50.5468 20.9984C51.127 20.9984 51.5925 21.1924 51.9434 21.5803C52.2975 21.9648 52.4746 22.4927 52.4746 23.164C52.4746 23.8319 52.3026 24.3699 51.9585 24.7781C51.6178 25.1862 51.154 25.3903 50.5671 25.3903C49.9801 25.3903 49.4961 25.1728 49.1149 24.7376C48.7978 25.166 48.2767 25.3802 47.5514 25.3802C47.5244 25.3802 47.4974 25.3768 47.4705 25.3701H47.2023V24.4998H47.5413C47.9764 24.4998 48.2632 24.4121 48.4015 24.2367C48.5398 24.0613 48.6089 23.7374 48.6089 23.2652C48.6089 22.5602 48.786 22.007 49.1402 21.6056Z" fill="white"/>
<path d="M14.1094 59.8943C14.0441 59.9446 13.9786 59.9947 13.9136 60.0456C13.9784 59.9947 14.0441 59.9446 14.1094 59.8943Z" fill="#224EA2"/>
<path d="M18.3815 57.1287C18.3906 57.0506 18.3959 56.998 18.3947 56.9857L18.377 57.1311C18.3785 57.1302 18.3799 57.1295 18.3815 57.1287Z" fill="#224EA2"/>
<path d="M34.1603 53.9297C34.1053 53.9257 34.0507 53.9205 33.9956 53.917C34.0507 53.9204 34.1053 53.9259 34.1603 53.9297Z" fill="#224EA2"/>
<path d="M37.0761 54.2892C37.0469 54.284 37.018 54.2786 36.9888 54.2735C37.018 54.2786 37.0471 54.284 37.0761 54.2892Z" fill="#224EA2"/>
<path d="M20.9096 56.3437C20.8411 56.3749 20.7723 56.4054 20.7041 56.4372C20.7723 56.4056 20.8411 56.3749 20.9096 56.3437Z" fill="#224EA2"/>
<path d="M22.4246 55.7062C22.3317 55.7422 22.2395 55.7798 22.147 55.8168C22.2395 55.7799 22.3317 55.7421 22.4246 55.7062Z" fill="#224EA2"/>
<path d="M7.96448 67.4301C8.04958 67.3059 8.13792 67.1848 8.22443 67.0619C8.45695 66.7316 8.6937 66.4054 8.9362 66.0849C9.03467 65.955 9.13398 65.8261 9.234 65.6978C9.48621 65.3744 9.74363 65.0567 10.0058 64.744C10.0925 64.6406 10.1779 64.5359 10.2656 64.4336C10.6146 64.0277 10.9701 63.6287 11.3356 63.2421C11.3364 63.2413 11.3371 63.2405 11.3377 63.2398C10.2655 62.6593 10.387 60.5369 10.387 60.5369V56.4948H4.15283V59.5194C4.15283 62.1053 4.3523 64.1011 4.75109 65.5078C5.1254 66.8281 5.90723 67.9212 7.0659 68.8035C7.35511 68.3363 7.65642 67.88 7.96448 67.4301Z" fill="#224EA2"/>
<path d="M14.8408 60.0457C14.9058 59.9948 14.9713 59.9447 15.0366 59.8943C15.4323 59.5887 15.8342 59.2927 16.2425 59.0079C16.2905 58.9745 16.3379 58.9402 16.386 58.9069C17.3275 58.2584 18.3009 57.6643 19.3042 57.1311L19.3219 56.9859C19.1361 55.0402 18.8007 53.3563 18.3154 52.4182C17.5287 50.8987 15.542 48.4591 12.6247 45.9059C10.8046 44.3162 10.3089 42.6916 10.3089 42.6916C9.7073 40.1906 11.2271 39.9545 11.2271 39.9545C13.2742 39.6227 13.2496 41.4628 13.2496 41.4628V43.8156H19.4499V42.6562C19.4499 39.914 19.0656 37.9243 18.5851 36.8278C18.0777 35.6703 17.4452 34.7362 16.3098 33.9828C15.066 33.1578 13.7498 32.8531 11.947 32.8531C10.298 32.8531 8.89059 33.1978 7.72517 33.887C6.56003 34.5759 5.71603 35.5316 5.19373 36.7531C4.67172 37.9751 4.28418 40.074 4.28418 42.7161C4.28418 44.5489 4.49237 45.9534 4.96304 47.0674C5.44187 48.2006 5.98315 49.0084 6.46465 49.6953C6.97752 50.4268 8.06066 51.5778 9.78678 53.0554C11.5125 54.5186 12.5953 56.5906 13.0352 57.2156C13.4319 57.7939 13.6018 59.2739 13.5673 61.0975C13.9832 60.734 14.4088 60.3848 14.8408 60.0457Z" fill="#224EA2"/>
<path d="M26.9665 37.3106H27.7274L28.768 47.8764H26.1731L26.9665 37.3106ZM19.3086 57.1287C19.7676 56.8849 20.2335 56.6558 20.7041 56.4372C20.7724 56.4055 20.8412 56.3749 20.9097 56.3436C21.3179 56.158 21.7307 55.983 22.1471 55.8167C22.2397 55.7799 22.3319 55.7422 22.4248 55.7061C22.8478 55.5427 23.2753 55.3905 23.7063 55.2477C23.777 55.2242 23.8468 55.1982 23.9178 55.1753C24.4266 55.0111 24.9406 54.8603 25.4601 54.7261L25.8054 51.8596L29.1644 51.8416L29.4463 54.0059H29.4466C29.9095 53.9575 30.3754 53.9209 30.8438 53.8962C30.8488 53.8959 30.8533 53.8953 30.8582 53.8951C31.3314 53.8703 31.8075 53.8576 32.2861 53.8576C32.8601 53.8576 33.4297 53.8794 33.9956 53.917C34.0506 53.9205 34.1053 53.9257 34.1603 53.9297C34.6708 53.9667 35.1781 54.0176 35.6818 54.081C35.6207 54.0734 35.5608 54.0615 35.4996 54.0542V52.452L32.4801 33.0643H22.2581L19.3218 56.9859C19.3231 56.998 19.3177 57.0508 19.3086 57.1287Z" fill="#224EA2"/>
<path d="M35.6817 54.0809C36.12 54.1359 36.5565 54.1978 36.989 54.2735C37.018 54.2786 37.0467 54.2839 37.0757 54.2891C37.5421 54.3723 38.0049 54.4676 38.4639 54.5743C38.504 54.5837 38.5444 54.593 38.5845 54.6025C39.0401 54.7106 39.4921 54.8301 39.9399 54.9609C39.9729 54.9705 40.0058 54.9795 40.0385 54.9892C40.5125 55.1296 40.9824 55.2814 41.4472 55.4467L41.5717 41.0396L44.5611 56.7677L44.5617 56.768C45.0872 57.029 45.604 57.3085 46.1138 57.6015C46.1552 57.6255 46.1965 57.6488 46.2377 57.6729C47.8116 58.5882 49.3085 59.652 50.7135 60.8505L54.2481 40.7115L54.4137 64.5616C55.6315 65.9937 56.7441 67.543 57.7381 69.1936L57.7398 69.1966C57.9876 69.6084 58.2283 70.0268 58.4611 70.4512C58.4614 70.4514 58.4615 70.4519 58.4618 70.4523C59.1618 71.7276 59.7928 73.0577 60.349 74.4361L60.4192 69.6204V33.0642H50.68L47.8273 47.7499L45.12 33.0642H35.4995V52.4519V54.0541C35.5607 54.0614 35.6206 54.0733 35.6817 54.0809Z" fill="#224EA2"/>
<path d="M54.7607 37.3106L57.9701 38.6009H59.7906V40.2384H57.9701L54.7607 41.4814V39.8564C55.7425 39.603 56.4039 39.4604 56.7436 39.4268C56.2061 39.3287 55.5459 39.1664 54.7607 38.9342V37.3106Z" fill="white"/>
<path d="M54.7607 45.3302H55.7682V46.3798H59.7906V48.149H55.7682V49.193H54.7607V45.3302Z" fill="white"/>
<path d="M54.7607 53.0419H59.7906V54.8095H54.7607V53.0419Z" fill="white"/>
<path d="M57.0556 58.6583V60.4273H56.1816C55.9273 60.4273 55.7692 60.4456 55.7062 60.4835C55.6431 60.5212 55.6111 60.6037 55.6111 60.7324C55.6111 60.878 55.6496 60.9704 55.7266 61.0095C55.8035 61.0488 55.9691 61.0683 56.2234 61.0683H58.5599C58.8035 61.0683 58.9636 61.0488 59.0374 61.0095C59.1121 60.9704 59.1497 60.8836 59.1497 60.7465C59.1497 60.6148 59.1121 60.5282 59.0374 60.4875C58.9627 60.447 58.7875 60.4273 58.5119 60.4273H57.8792V58.6583H58.0749C58.5962 58.6583 58.9647 58.7087 59.1827 58.808C59.4006 58.9074 59.5908 59.1271 59.7553 59.4673C59.9187 59.8074 60.001 60.2259 60.001 60.7241C60.001 61.2419 59.9317 61.6701 59.7928 62.0062C59.654 62.3419 59.4615 62.5632 59.2169 62.6722C58.9712 62.7815 58.6015 62.8375 58.109 62.8375H56.6401C56.2778 62.8375 56.0054 62.8206 55.8238 62.7872C55.6431 62.7534 55.4691 62.6527 55.3013 62.4861C55.1336 62.3196 55.0011 62.0887 54.9049 61.7933C54.8087 61.4979 54.7607 61.1579 54.7607 60.7745C54.7607 60.2539 54.8345 59.8256 54.984 59.4868C55.1325 59.1481 55.3183 58.9243 55.5406 58.8178C55.763 58.7115 56.109 58.6583 56.578 58.6583H57.0556Z" fill="white"/>
<path d="M62.5904 84.3314H1.98193V32.4952H62.5904V84.3314Z" stroke="white" stroke-width="0.000216417" stroke-miterlimit="10"/>
<path d="M32.286 59.3387C46.2872 59.3387 58.1432 69.686 62.1916 83.9734C59.5952 67.4717 47.1983 54.9628 32.286 54.9628C17.3736 54.9628 4.9768 67.4717 2.38037 83.9735C6.42876 69.686 18.2847 59.3387 32.286 59.3387Z" fill="#224EA2"/>
</svg>
